<?xml version="1.0" encoding="utf-8"?>
<!-- Generator: Adobe Illustrator 24.2.3, SVG Export Plug-In . SVG Version: 6.00 Build 0)  -->
<svg version="1.1" id="Layer_1" xmlns="http://www.w3.org/2000/svg" xmlns:xlink="http://www.w3.org/1999/xlink" x="0px" y="0px"
    width="200" height="100" viewBox="0 0 100 50" style="enable-background:new 0 0 100 50;" xml:space="preserve">
<g id="Layer_2_1_">
	<g>
		<g>
			<path d="M15.3,22.1L15.3,22.1l-3.1,7.1H7L13.9,13h5.2l-2.8,6.6h0.1c0.1-0.3,0.3-0.5,0.4-0.7s0.3-0.4,0.4-0.5l4.8-5.4h5.6l-7.3,8
				l0.5,8.3h-5.7L15,23.4c0-0.2,0-0.3,0-0.5C15.1,22.6,15.2,22.4,15.3,22.1z"/>
			<path d="M36.1,23.8l0.5,5.4h-5.8l0-4.8h-1.1l-2.1,4.8h-5.2L29.3,13h8.2c3.7,0,4.8,1.9,3.2,5.7C39.6,21.2,38,23,36.1,23.8z
				 M33.9,17.1h-1.2l-1.4,3.3h1.2c0.6,0,1.1,0,1.4-0.2c0.3-0.1,0.6-0.4,0.8-0.9l0.5-1.1c0.2-0.5,0.2-0.8,0-0.9
				C35,17.2,34.6,17.1,33.9,17.1z"/>
			<path d="M51.4,23.1h-5.2l-0.9,2h6.4l-1.8,4.2H38.4L45.3,13h11.5l-2.4,4.2h-5.6l-1,2.2H53L51.4,23.1z"/>
			<path d="M56,29.2h-5.5l11.1-16.3h8L67,29.2h-5.5l0.5-2.6h-4.3L56,29.2z M63.4,17.9l-3,4.5h2.4l0.9-4.5H63.4z"/>
			<path d="M72.8,29.2h-5.4l7.9-16.3H82l-1.5,8.3h0.2l5.5-8.2H93l-6,16.3h-5.4l3.1-7.9h-0.2l-5.3,7.9h-4l1.4-7.9h-0.1L72.8,29.2z"/>
		</g>
		<g>
			<path d="M10.6,37l-1.5-1.7c0,0,0,0,0-0.1l0,0V37H8.9v-3.5h0.2v1.6l0,0c0,0,0,0,0-0.1l1.4-1.5h0.3l-1.5,1.7l1.6,1.8
				C10.9,37,10.6,37,10.6,37z"/>
			<path d="M11.5,37v-3.5h0.2V37H11.5z"/>
			<path d="M14.9,36.9C14.6,37,14.3,37,14,37c-0.5,0-0.9-0.2-1.2-0.5c-0.3-0.3-0.5-0.7-0.5-1.3c0-0.6,0.2-1,0.5-1.4
				c0.3-0.3,0.7-0.5,1.2-0.5c0.3,0,0.5,0,0.8,0.1v0.3c-0.2-0.1-0.5-0.2-0.8-0.2c-0.5,0-0.8,0.1-1.1,0.5c-0.3,0.3-0.4,0.7-0.4,1.2
				c0,0.5,0.1,0.9,0.4,1.1c0.3,0.3,0.6,0.4,1,0.4c0.3,0,0.6,0,0.9-0.2L14.9,36.9L14.9,36.9z"/>
			<path d="M17.5,37L16,35.3c0,0,0,0,0-0.1l0,0V37h-0.2v-3.5H16v1.6l0,0c0,0,0,0,0-0.1l1.4-1.5h0.3l-1.5,1.7l1.6,1.8
				C17.8,37,17.5,37,17.5,37z"/>
			<path d="M18.2,36.9v-0.3c0.3,0.2,0.5,0.2,0.8,0.2s0.5,0,0.6-0.2c0.1-0.1,0.2-0.3,0.2-0.5s0-0.3-0.1-0.4c-0.1-0.1-0.3-0.3-0.6-0.5
				c-0.4-0.2-0.6-0.4-0.7-0.5c-0.1-0.1-0.1-0.3-0.1-0.5c0-0.2,0.1-0.5,0.3-0.6c0.2-0.2,0.5-0.3,0.8-0.3c0.2,0,0.4,0,0.6,0.1v0.3
				c-0.2-0.1-0.4-0.1-0.6-0.1s-0.4,0-0.5,0.2c-0.1,0.1-0.2,0.3-0.2,0.5s0,0.3,0.1,0.4c0.1,0.1,0.3,0.2,0.6,0.5
				c0.3,0.2,0.5,0.4,0.6,0.5c0.1,0.1,0.2,0.3,0.2,0.5c0,0.3-0.1,0.5-0.3,0.6C19.6,37,19.4,37,19,37c-0.1,0-0.3,0-0.4,0
				S18.3,36.9,18.2,36.9z"/>
			<path d="M23.9,37l-0.5-1c-0.1-0.2-0.2-0.4-0.3-0.4c-0.1-0.1-0.2-0.1-0.4-0.1h-0.5V37h-0.2v-3.5h1c0.3,0,0.5,0.1,0.7,0.3
				c0.2,0.2,0.3,0.4,0.3,0.7s-0.1,0.5-0.2,0.6c-0.1,0.2-0.4,0.3-0.6,0.3l0,0c0.1,0,0.3,0.2,0.4,0.5l0.5,1.1L23.9,37L23.9,37z
				 M22.4,33.7v1.5H23c0.3,0,0.5-0.1,0.6-0.2c0.1-0.1,0.2-0.3,0.2-0.6c0-0.2-0.1-0.4-0.2-0.5c-0.1-0.1-0.4-0.2-0.6-0.2L22.4,33.7
				L22.4,33.7z"/>
			<path d="M27.3,35.6c0,1-0.4,1.4-1.2,1.4c-0.8,0-1.2-0.5-1.2-1.4v-2.1h0.2v2.1c0,0.8,0.3,1.2,1,1.2c0.6,0,1-0.4,1-1.2v-2.1h0.2
				V35.6z"/>
			<path d="M28.1,37v-3.5h0.2v3.3h1.4V37H28.1z"/>
			<path d="M30.4,37v-3.5H32v0.2h-1.4v1.4h1.3v0.2h-1.3v1.4h1.4V37H30.4z"/>
			<path d="M34.3,37v-3.5h1.6v0.2h-1.4v1.4h1.3v0.2h-1.3v1.4H36V37H34.3z"/>
			<path d="M37.9,37h-0.2l-1.3-3.5h0.3l1,2.8c0,0.1,0.1,0.2,0.1,0.3l0,0c0-0.1,0-0.2,0.1-0.3l1.1-2.8h0.3L37.9,37z"/>
			<path d="M39.8,37v-3.5h1.6v0.2H40v1.4h1.3v0.2H40v1.4h1.4V37H39.8z"/>
			<path d="M44,37l-0.5-1c-0.1-0.2-0.2-0.4-0.3-0.4c-0.1-0.1-0.2-0.1-0.4-0.1h-0.5V37h-0.2v-3.5h1c0.3,0,0.5,0.1,0.7,0.3
				c0.2,0.2,0.3,0.4,0.3,0.7s-0.1,0.5-0.2,0.6c-0.1,0.2-0.4,0.3-0.6,0.3l0,0c0.1,0,0.3,0.2,0.4,0.5l0.5,1.1L44,37L44,37z M42.5,33.7
				v1.5h0.6c0.3,0,0.5-0.1,0.6-0.2c0.1-0.1,0.2-0.3,0.2-0.6c0-0.2-0.1-0.4-0.2-0.5c-0.1-0.1-0.4-0.2-0.6-0.2L42.5,33.7L42.5,33.7z"
				/>
			<path d="M46,35.7V37h-0.2v-1.3l-1.1-2.2H45l0.8,1.7c0,0,0,0.1,0.1,0.3l0,0c0,0,0-0.1,0.1-0.3l0.9-1.7h0.3L46,35.7z"/>
			<path d="M48.8,33.7V37h-0.2v-3.3h-1v-0.2h2.3v0.2H48.8z"/>
			<path d="M52.6,37v-1.7h-2V37h-0.2v-3.5h0.2v1.6h2v-1.6h0.2V37H52.6z"/>
			<path d="M53.8,37v-3.5H54V37H53.8z"/>
			<path d="M57.4,37l-2.1-2.8c0,0-0.1-0.1-0.1-0.2l0,0l0,0c0,0,0,0.1,0,0.1V37H55v-3.5h0.2l2.1,2.8c0,0,0.1,0.1,0.1,0.2l0,0
				c0-0.1,0-0.2,0-0.3v-2.7h0.2V37L57.4,37L57.4,37z"/>
			<path d="M61,36.8c-0.4,0.2-0.7,0.3-1.1,0.3c-0.5,0-0.9-0.2-1.1-0.5c-0.3-0.3-0.5-0.7-0.5-1.3s0.1-1,0.5-1.3
				c0.3-0.4,0.7-0.5,1.3-0.5c0.3,0,0.6,0,0.9,0.2v0.3c-0.3-0.1-0.6-0.2-0.9-0.2c-0.5,0-0.8,0.1-1,0.5c-0.3,0.3-0.4,0.7-0.4,1.1
				c0,0.5,0.1,0.9,0.4,1.1c0.3,0.3,0.6,0.4,1,0.4c0.3,0,0.6-0.1,0.8-0.2v-1.1h-0.8v-0.2h1L61,36.8L61,36.8z"/>
			<path d="M65.4,37L65,35.9h-1.5L63.1,37h-0.3l1.3-3.5h0.2l1.3,3.5H65.4z M64.4,34.1c0,0,0-0.1,0-0.1c0,0,0-0.1,0-0.1l0,0
				c0,0.1,0,0.2-0.1,0.3l-0.6,1.6H65L64.4,34.1z"/>
			<path d="M68.1,37l-0.5-1c-0.1-0.2-0.2-0.4-0.3-0.4c-0.1-0.1-0.2-0.1-0.4-0.1h-0.5V37h-0.2v-3.5h1c0.3,0,0.5,0.1,0.7,0.3
				c0.2,0.2,0.3,0.4,0.3,0.7s-0.1,0.5-0.2,0.6c-0.1,0.2-0.4,0.3-0.6,0.3l0,0c0.1,0,0.3,0.2,0.4,0.5l0.5,1.1L68.1,37L68.1,37z
				 M66.5,33.7v1.5h0.6c0.3,0,0.5-0.1,0.6-0.2c0.1-0.1,0.2-0.3,0.2-0.6c0-0.2-0.1-0.4-0.2-0.5c-0.1-0.1-0.4-0.2-0.6-0.2L66.5,33.7
				L66.5,33.7z"/>
			<path d="M70.5,37c-0.5,0-0.9-0.2-1.2-0.5c-0.3-0.3-0.5-0.8-0.5-1.3c0-0.5,0.1-1,0.5-1.4c0.3-0.4,0.7-0.5,1.2-0.5
				c0.5,0,0.9,0.2,1.1,0.5c0.3,0.3,0.5,0.7,0.5,1.3c0,0.6-0.1,1-0.5,1.4C71.4,36.9,71,37,70.5,37z M70.5,33.7c-0.4,0-0.7,0.1-1,0.5
				c-0.3,0.3-0.4,0.7-0.4,1.1c0,0.5,0.1,0.9,0.4,1.1c0.2,0.3,0.6,0.4,1,0.4c0.5,0,0.8-0.1,1-0.4c0.3-0.3,0.4-0.7,0.4-1.2
				s-0.1-0.9-0.4-1.1C71.3,33.8,70.9,33.7,70.5,33.7z"/>
			<path d="M75.2,35.6c0,1-0.4,1.4-1.2,1.4c-0.8,0-1.2-0.5-1.2-1.4v-2.1H73v2.1c0,0.8,0.3,1.2,1,1.2c0.6,0,1-0.4,1-1.2v-2.1h0.2
				V35.6z"/>
			<path d="M78.6,37l-2.1-2.8c0,0-0.1-0.1-0.1-0.2l0,0l0,0c0,0,0,0.1,0,0.1V37h-0.2v-3.5h0.2l2.1,2.8c0,0,0.1,0.1,0.1,0.2l0,0
				c0-0.1,0-0.2,0-0.3v-2.7h0.2V37L78.6,37L78.6,37z"/>
			<path d="M79.6,37v-3.5h0.9c0.6,0,1,0.1,1.3,0.5c0.3,0.3,0.5,0.7,0.5,1.3c0,0.5-0.2,1-0.5,1.3C81.4,36.9,81,37,80.4,37L79.6,37
				L79.6,37z M79.9,33.7v3h0.5c0.5,0,0.9-0.1,1.2-0.4s0.4-0.6,0.4-1.2c0-1-0.5-1.5-1.5-1.5L79.9,33.7L79.9,33.7z"/>
			<path d="M87.3,37v-2.5c0,0,0-0.2,0-0.5l0,0c0,0.1-0.1,0.2-0.1,0.3L86,37h-0.1l-1.3-2.7c0-0.1-0.1-0.2-0.1-0.3l0,0
				c0,0.1,0,0.3,0,0.5V37h-0.2v-3.5h0.2l1.3,2.8c0,0,0,0,0,0s0,0,0,0.1c0,0,0,0.1,0,0.1l0,0l0-0.1c0,0,0-0.1,0.1-0.2l1.3-2.8h0.2V37
				L87.3,37L87.3,37z"/>
			<path d="M88.5,37v-3.5h1.6v0.2h-1.4v1.4H90v0.2h-1.3v1.4h1.4V37H88.5z"/>
		</g>
	</g>
</g>
</svg>
